<?xml version="1.0" encoding="UTF-8" standalone="no"?>
<!DOCTYPE svg PUBLIC "-//W3C//DTD SVG 1.1//EN"
 "http://www.w3.org/Graphics/SVG/1.1/DTD/svg11.dtd">
<!-- Generated by graphviz version 2.40.1 (20161225.0304)
 -->
<!-- Title: G Pages: 1 -->
<svg width="258pt" height="548pt"
 viewBox="0.00 0.00 257.86 548.00" xmlns="http://www.w3.org/2000/svg" xmlns:xlink="http://www.w3.org/1999/xlink">
<g id="graph0" class="graph" transform="scale(1 1) rotate(0) translate(4 544)">
<title>G</title>
<polygon fill="#ffffff" stroke="transparent" points="-4,4 -4,-544 253.862,-544 253.862,4 -4,4"/>
<!-- A0 -->
<g id="node1" class="node">
<title>A0</title>
<path fill="none" stroke="#000000" d="M191.3086,-540C191.3086,-540 131.0484,-540 131.0484,-540 125.0484,-540 119.0484,-534 119.0484,-528 119.0484,-528 119.0484,-516 119.0484,-516 119.0484,-510 125.0484,-504 131.0484,-504 131.0484,-504 191.3086,-504 191.3086,-504 197.3086,-504 203.3086,-510 203.3086,-516 203.3086,-516 203.3086,-528 203.3086,-528 203.3086,-534 197.3086,-540 191.3086,-540"/>
<text text-anchor="middle" x="161.1785" y="-519" font-family="Helvetica,sans-Serif" font-size="10.00" fill="#000000">PCF Loaded</text>
</g>
<!-- A1 -->
<g id="node2" class="node">
<title>A1</title>
<path fill="none" stroke="#000000" d="M226.3156,-468C226.3156,-468 96.0414,-468 96.0414,-468 90.0414,-468 84.0414,-462 84.0414,-456 84.0414,-456 84.0414,-444 84.0414,-444 84.0414,-438 90.0414,-432 96.0414,-432 96.0414,-432 226.3156,-432 226.3156,-432 232.3156,-432 238.3156,-438 238.3156,-444 238.3156,-444 238.3156,-456 238.3156,-456 238.3156,-462 232.3156,-468 226.3156,-468"/>
<text text-anchor="middle" x="161.1785" y="-447" font-family="Helvetica,sans-Serif" font-size="10.00" fill="#000000">PCF triggers onReady event</text>
</g>
<!-- A0&#45;&gt;A1 -->
<g id="edge1" class="edge">
<title>A0&#45;&gt;A1</title>
<path fill="none" stroke="#000000" d="M161.1785,-503.8314C161.1785,-496.131 161.1785,-486.9743 161.1785,-478.4166"/>
<polygon fill="#000000" stroke="#000000" points="161.1785,-468.4133 165.6786,-478.4132 161.1785,-473.4133 161.1786,-478.4133 161.1786,-478.4133 161.1786,-478.4133 161.1785,-473.4133 156.6786,-478.4133 161.1785,-468.4133 161.1785,-468.4133"/>
</g>
<!-- A2 -->
<g id="node3" class="node">
<title>A2</title>
<path fill="none" stroke="#000000" d="M228.8256,-396C228.8256,-396 93.5314,-396 93.5314,-396 87.5314,-396 81.5314,-390 81.5314,-384 81.5314,-384 81.5314,-372 81.5314,-372 81.5314,-366 87.5314,-360 93.5314,-360 93.5314,-360 228.8256,-360 228.8256,-360 234.8256,-360 240.8256,-366 240.8256,-372 240.8256,-372 240.8256,-384 240.8256,-384 240.8256,-390 234.8256,-396 228.8256,-396"/>
<text text-anchor="middle" x="161.1785" y="-375" font-family="Helvetica,sans-Serif" font-size="10.00" fill="#000000">Form handles onReady event</text>
</g>
<!-- A1&#45;&gt;A2 -->
<g id="edge2" class="edge">
<title>A1&#45;&gt;A2</title>
<path fill="none" stroke="#000000" d="M161.1785,-431.8314C161.1785,-424.131 161.1785,-414.9743 161.1785,-406.4166"/>
<polygon fill="#000000" stroke="#000000" points="161.1785,-396.4133 165.6786,-406.4132 161.1785,-401.4133 161.1786,-406.4133 161.1786,-406.4133 161.1786,-406.4133 161.1785,-401.4133 156.6786,-406.4133 161.1785,-396.4133 161.1785,-396.4133"/>
</g>
<!-- A3 -->
<g id="node4" class="node">
<title>A3</title>
<path fill="none" stroke="#000000" d="M223.8648,-324C223.8648,-324 98.4922,-324 98.4922,-324 92.4922,-324 86.4922,-318 86.4922,-312 86.4922,-312 86.4922,-300 86.4922,-300 86.4922,-294 92.4922,-288 98.4922,-288 98.4922,-288 223.8648,-288 223.8648,-288 229.8648,-288 235.8648,-294 235.8648,-300 235.8648,-300 235.8648,-312 235.8648,-312 235.8648,-318 229.8648,-324 223.8648,-324"/>
<text text-anchor="middle" x="161.1785" y="-303" font-family="Helvetica,sans-Serif" font-size="10.00" fill="#000000">Form triggers onData event</text>
</g>
<!-- A2&#45;&gt;A3 -->
<g id="edge3" class="edge">
<title>A2&#45;&gt;A3</title>
<path fill="none" stroke="#000000" d="M161.1785,-359.8314C161.1785,-352.131 161.1785,-342.9743 161.1785,-334.4166"/>
<polygon fill="#000000" stroke="#000000" points="161.1785,-324.4133 165.6786,-334.4132 161.1785,-329.4133 161.1786,-334.4133 161.1786,-334.4133 161.1786,-334.4133 161.1785,-329.4133 156.6786,-334.4133 161.1785,-324.4133 161.1785,-324.4133"/>
</g>
<!-- A4 -->
<g id="node5" class="node">
<title>A4</title>
<path fill="none" stroke="#000000" d="M172.2165,-252C172.2165,-252 48.1405,-252 48.1405,-252 42.1405,-252 36.1405,-246 36.1405,-240 36.1405,-240 36.1405,-228 36.1405,-228 36.1405,-222 42.1405,-216 48.1405,-216 48.1405,-216 172.2165,-216 172.2165,-216 178.2165,-216 184.2165,-222 184.2165,-228 184.2165,-228 184.2165,-240 184.2165,-240 184.2165,-246 178.2165,-252 172.2165,-252"/>
<text text-anchor="middle" x="110.1785" y="-231" font-family="Helvetica,sans-Serif" font-size="10.00" fill="#000000">PCF handles onData event</text>
</g>
<!-- A3&#45;&gt;A4 -->
<g id="edge4" class="edge">
<title>A3&#45;&gt;A4</title>
<path fill="none" stroke="#000000" d="M148.309,-287.8314C142.495,-279.6232 135.5089,-269.7606 129.1139,-260.7323"/>
<polygon fill="#000000" stroke="#000000" points="123.2212,-252.4133 132.6736,-257.9724 126.1113,-256.4934 129.0014,-260.5735 129.0014,-260.5735 129.0014,-260.5735 126.1113,-256.4934 125.3293,-263.1746 123.2212,-252.4133 123.2212,-252.4133"/>
</g>
<!-- A5 -->
<g id="node6" class="node">
<title>A5</title>
<path fill="none" stroke="#000000" d="M164.6785,-180C164.6785,-180 55.6785,-180 55.6785,-180 49.6785,-180 43.6785,-174 43.6785,-168 43.6785,-168 43.6785,-156 43.6785,-156 43.6785,-150 49.6785,-144 55.6785,-144 55.6785,-144 164.6785,-144 164.6785,-144 170.6785,-144 176.6785,-150 176.6785,-156 176.6785,-156 176.6785,-168 176.6785,-168 176.6785,-174 170.6785,-180 164.6785,-180"/>
<text text-anchor="middle" x="110.1785" y="-159" font-family="Helvetica,sans-Serif" font-size="10.00" fill="#000000">User interacts with PCF</text>
</g>
<!-- A4&#45;&gt;A5 -->
<g id="edge5" class="edge">
<title>A4&#45;&gt;A5</title>
<path fill="none" stroke="#000000" d="M110.1785,-215.8314C110.1785,-208.131 110.1785,-198.9743 110.1785,-190.4166"/>
<polygon fill="#000000" stroke="#000000" points="110.1785,-180.4133 114.6786,-190.4132 110.1785,-185.4133 110.1786,-190.4133 110.1786,-190.4133 110.1786,-190.4133 110.1785,-185.4133 105.6786,-190.4133 110.1785,-180.4133 110.1785,-180.4133"/>
</g>
<!-- A6 -->
<g id="node7" class="node">
<title>A6</title>
<path fill="none" stroke="#000000" d="M134.5359,-108C134.5359,-108 11.8211,-108 11.8211,-108 5.8211,-108 -.1789,-102 -.1789,-96 -.1789,-96 -.1789,-84 -.1789,-84 -.1789,-78 5.8211,-72 11.8211,-72 11.8211,-72 134.5359,-72 134.5359,-72 140.5359,-72 146.5359,-78 146.5359,-84 146.5359,-84 146.5359,-96 146.5359,-96 146.5359,-102 140.5359,-108 134.5359,-108"/>
<text text-anchor="middle" x="73.1785" y="-87" font-family="Helvetica,sans-Serif" font-size="10.00" fill="#000000">PCF triggers onData event</text>
</g>
<!-- A5&#45;&gt;A6 -->
<g id="edge6" class="edge">
<title>A5&#45;&gt;A6</title>
<path fill="none" stroke="#000000" d="M100.8418,-143.8314C96.7542,-135.8771 91.8681,-126.369 87.3476,-117.5723"/>
<polygon fill="#000000" stroke="#000000" points="82.6409,-108.4133 91.2141,-115.2508 84.9262,-112.8604 87.2116,-117.3076 87.2116,-117.3076 87.2116,-117.3076 84.9262,-112.8604 83.2092,-119.3644 82.6409,-108.4133 82.6409,-108.4133"/>
</g>
<!-- A7 -->
<g id="node8" class="node">
<title>A7</title>
<path fill="none" stroke="#000000" d="M238.0459,-36C238.0459,-36 110.3111,-36 110.3111,-36 104.3111,-36 98.3111,-30 98.3111,-24 98.3111,-24 98.3111,-12 98.3111,-12 98.3111,-6 104.3111,0 110.3111,0 110.3111,0 238.0459,0 238.0459,0 244.0459,0 250.0459,-6 250.0459,-12 250.0459,-12 250.0459,-24 250.0459,-24 250.0459,-30 244.0459,-36 238.0459,-36"/>
<text text-anchor="middle" x="174.1785" y="-15" font-family="Helvetica,sans-Serif" font-size="10.00" fill="#000000">Form handles onData event</text>
</g>
<!-- A6&#45;&gt;A7 -->
<g id="edge7" class="edge">
<title>A6&#45;&gt;A7</title>
<path fill="none" stroke="#000000" d="M98.6651,-71.8314C111.3444,-62.7927 126.8381,-51.7476 140.484,-42.0198"/>
<polygon fill="#000000" stroke="#000000" points="148.7001,-36.1628 143.1694,-45.6319 144.6287,-39.0652 140.5573,-41.9676 140.5573,-41.9676 140.5573,-41.9676 144.6287,-39.0652 137.9451,-38.3034 148.7001,-36.1628 148.7001,-36.1628"/>
</g>
<!-- A7&#45;&gt;A3 -->
<g id="edge8" class="edge">
<title>A7&#45;&gt;A3</title>
<path fill="none" stroke="#000000" d="M179.7732,-36.002C191.2438,-75.7676 214.6158,-173.7744 193.1785,-252 190.598,-261.4163 185.9043,-270.8557 180.8926,-279.1487"/>
<polygon fill="#000000" stroke="#000000" points="175.4144,-287.6423 177.053,-276.7995 178.1245,-283.4404 180.8347,-279.2386 180.8347,-279.2386 180.8347,-279.2386 178.1245,-283.4404 184.6163,-281.6777 175.4144,-287.6423 175.4144,-287.6423"/>
</g>
<!-- A7&#45;&gt;A5 -->
<g id="edge9" class="edge">
<title>A7&#45;&gt;A5</title>
<path fill="none" stroke="#000000" d="M172.9393,-36.076C171.0747,-54.8637 166.4638,-84.7208 155.1785,-108 150.3375,-117.986 143.2575,-127.6914 136.14,-136.0555"/>
<polygon fill="#000000" stroke="#000000" points="129.3764,-143.6291 132.681,-133.173 132.7069,-139.8998 136.0374,-136.1704 136.0374,-136.1704 136.0374,-136.1704 132.7069,-139.8998 139.3938,-139.1679 129.3764,-143.6291 129.3764,-143.6291"/>
</g>
</g>
</svg>
